# xmcd
#
# Track frame offsets:
#	150
#	16357
#	32394
#	46465
#	58765
#	71737
#	84377
#	99847
#	114790
#	129792
#	145172
#	160242
#	172547
#	185985
#
# Disc length: 2671 seconds
#
# Revision: 0
# Processed by: cddbd v1.4PL0 Copyright (c) Steve Scherf et al.
# Submitted via: EasyCDDAExtractor 5.0.5.1
#
DISCID=a90a6d0e
DTITLE=Renato Reixeira - Vol. 2
DYEAR=1900
DGENRE=Country
TTITLE0=Sina de Violeiro
TTITLE1=Amora
TTITLE2=Cavalo Bravo
TTITLE3=Sessenta Léguas
TTITLE4=Rio Abaixo
TTITLE5=Arraial
TTITLE6=Aicente
TTITLE7=Aguas Claras
TTITLE8=Uma Doce Canção
TTITLE9=Tatu Com Torresmo
TTITLE10=Alforje
TTITLE11=Doradinho
TTITLE12=Terumi
TTITLE13=Canta moçada
EXTD=
EXTT0=
EXTT1=
EXTT2=
EXTT3=
EXTT4=
EXTT5=
EXTT6=
EXTT7=
EXTT8=
EXTT9=
EXTT10=
EXTT11=
EXTT12=
EXTT13=
PLAYORDER=
